<svg xmlns="http://www.w3.org/2000/svg" xmlns:xlink="http://www.w3.org/1999/xlink" width="500" zoomAndPan="magnify" viewBox="0 0 375 374.999991" height="500" preserveAspectRatio="xMidYMid meet" version="1.0"><defs><filter x="0%" y="0%" width="100%" height="100%" id="a29f8d685f"><feColorMatrix values="0 0 0 0 1 0 0 0 0 1 0 0 0 0 1 0 0 0 1 0" color-interpolation-filters="sRGB"/></filter><clipPath id="035d971e51"><path d="M 151 168.128906 L 223.699219 168.128906 L 223.699219 207 L 151 207 Z M 151 168.128906 " clip-rule="nonzero"/></clipPath><mask id="f89a1e2856"><g filter="url(#a29f8d685f)"><rect x="-37.5" width="450" fill="#000000" y="-37.499999" height="449.999989" fill-opacity="0.54"/></g></mask><clipPath id="12fd6eaeb6"><path d="M 1 1.019531 L 73.699219 1.019531 L 73.699219 40 L 1 40 Z M 1 1.019531 " clip-rule="nonzero"/></clipPath><clipPath id="7ccc5ee100"><rect x="0" width="75" y="0" height="41"/></clipPath></defs><g clip-path="url(#035d971e51)"><path fill="#7c5e75" d="M 151.164062 168.128906 L 151.164062 177.84375 L 163.667969 187.519531 L 151.164062 197.152344 L 151.164062 206.871094 L 176.210938 187.476562 Z M 174.976562 168.128906 L 174.976562 177.84375 L 187.476562 187.519531 L 174.976562 197.152344 L 174.976562 206.871094 L 200.019531 187.476562 Z M 198.785156 168.128906 L 198.785156 177.84375 L 211.289062 187.519531 L 198.785156 197.152344 L 198.785156 206.871094 L 223.832031 187.476562 Z M 198.785156 168.128906 " fill-opacity="1" fill-rule="nonzero"/></g><g mask="url(#f89a1e2856)"><g transform="matrix(1, 0, 0, 1, 150, 175)"><g clip-path="url(#7ccc5ee100)"><g clip-path="url(#12fd6eaeb6)"><path fill="#7c5e75" d="M 1.164062 1.019531 L 1.164062 10.734375 L 13.667969 20.410156 L 1.164062 30.042969 L 1.164062 39.761719 L 26.210938 20.367188 Z M 24.976562 1.019531 L 24.976562 10.734375 L 37.476562 20.410156 L 24.976562 30.042969 L 24.976562 39.761719 L 50.019531 20.367188 Z M 48.785156 1.019531 L 48.785156 10.734375 L 61.289062 20.410156 L 48.785156 30.042969 L 48.785156 39.761719 L 73.832031 20.367188 Z M 48.785156 1.019531 " fill-opacity="1" fill-rule="nonzero"/></g></g></g></g></svg>